<svg width="39" height="27" viewBox="0 0 39 27" fill="none" xmlns="http://www.w3.org/2000/svg">
<path d="M38.1088 4.21538C39 7.2225 39 13.5 39 13.5C39 13.5 39 19.7775 38.1088 22.7846C37.6135 24.4468 36.1647 25.7546 34.3298 26.1968C30.9972 27 19.5 27 19.5 27C19.5 27 8.00865 27 4.67025 26.1968C2.8275 25.7479 1.3806 24.4418 0.89115 22.7846C5.96046e-08 19.7775 0 13.5 0 13.5C0 13.5 5.96046e-08 7.2225 0.89115 4.21538C1.38645 2.55319 2.8353 1.24537 4.67025 0.80325C8.00865 -2.98023e-07 19.5 0 19.5 0C19.5 0 30.9972 -2.98023e-07 34.3298 0.80325C36.1725 1.25212 37.6194 2.55825 38.1088 4.21538ZM15.6 19.4062L27.3 13.5L15.6 7.59375V19.4062Z" fill="white"/>
</svg>
